<svg width="63" height="63" viewBox="0 0 63 63" fill="none" xmlns="http://www.w3.org/2000/svg">
<path d="M31.591 23.9991C30.1139 23.9996 28.6701 24.44 27.4422 25.2646C26.2143 26.0891 25.2574 27.2608 24.6926 28.6315C24.1277 30.0021 23.9802 31.5102 24.2687 32.9651C24.5572 34.4199 25.2688 35.7562 26.3134 36.805C27.3581 37.8537 28.689 38.5678 30.1377 38.857C31.5865 39.1462 33.0881 38.9975 34.4527 38.4297C35.8174 37.8619 36.9837 36.9005 37.8043 35.667C38.6249 34.4335 39.0628 32.9834 39.0628 31.5C39.0614 29.5106 38.2736 27.6031 36.8726 26.1967C35.4716 24.7902 33.572 23.9998 31.591 23.9991ZM49.0537 18.2334C48.6735 17.2657 48.0993 16.3868 47.3668 15.6511C46.6343 14.9155 45.7591 14.3389 44.7955 13.957C41.855 12.7913 34.8536 13.0528 31.591 13.0528C28.3284 13.0528 21.3341 12.7814 18.3851 13.957C17.4215 14.3389 16.5463 14.9155 15.8138 15.6511C15.0813 16.3868 14.5072 17.2657 14.1269 18.2334C12.9675 21.1866 13.2266 28.2248 13.2266 31.4986C13.2266 34.7723 12.9675 41.8022 14.1325 44.7652C14.5128 45.7329 15.0869 46.6118 15.8194 47.3474C16.5519 48.0831 17.4271 48.6597 18.3907 49.0416C21.3313 50.2073 28.3326 49.9458 31.5966 49.9458C34.8606 49.9458 41.8522 50.2172 44.8011 49.0416C45.7647 48.6597 46.6399 48.0831 47.3724 47.3474C48.1049 46.6118 48.6791 45.7329 49.0593 44.7652C50.2286 41.812 49.9597 34.7738 49.9597 31.5C49.9597 28.2262 50.2286 21.1978 49.0593 18.2348L49.0537 18.2334ZM31.591 43.0312C29.3201 43.0312 27.1001 42.355 25.2119 41.0879C23.3236 39.8208 21.8519 38.0199 20.9829 35.9128C20.1138 33.8058 19.8864 31.4872 20.3295 29.2504C20.7725 27.0135 21.8661 24.9588 23.4719 23.3462C25.0777 21.7335 27.1236 20.6353 29.351 20.1903C31.5783 19.7454 33.887 19.9737 35.9851 20.8465C38.0832 21.7193 39.8764 23.1973 41.1381 25.0936C42.3998 26.9899 43.0732 29.2193 43.0732 31.5C43.075 33.0148 42.7793 34.5151 42.2029 35.915C41.6265 37.3149 40.7808 38.5868 39.7143 39.658C38.6477 40.7291 37.3812 41.5784 35.9872 42.1573C34.5933 42.7361 33.0994 43.0331 31.591 43.0312ZM43.5465 22.1766C43.0164 22.1768 42.4981 22.0192 42.0571 21.7236C41.6162 21.4281 41.2725 21.0078 41.0694 20.516C40.8663 20.0242 40.8131 19.483 40.9163 18.9608C41.0196 18.4386 41.2747 17.9588 41.6495 17.5823C42.0242 17.2057 42.5018 16.9492 43.0217 16.8453C43.5416 16.7413 44.0806 16.7945 44.5704 16.9982C45.0602 17.2019 45.4789 17.5468 45.7734 17.9895C46.068 18.4322 46.2252 18.9526 46.2252 19.485C46.2267 19.8385 46.1586 20.1889 46.025 20.516C45.8913 20.8431 45.6947 21.1404 45.4463 21.391C45.198 21.6416 44.9028 21.8405 44.5777 21.9763C44.2527 22.112 43.9041 22.182 43.5521 22.1822L43.5465 22.1766ZM56.2357 0H6.94637C5.16378 0 3.4542 0.711159 2.19371 1.97703C0.93323 3.2429 0.225098 4.95979 0.225098 6.75L0.225098 56.25C0.225098 58.0402 0.93323 59.7571 2.19371 61.023C3.4542 62.2888 5.16378 63 6.94637 63H56.2357C58.0183 63 59.7279 62.2888 60.9884 61.023C62.2488 59.7571 62.957 58.0402 62.957 56.25V6.75C62.957 4.95979 62.2488 3.2429 60.9884 1.97703C59.7279 0.711159 58.0183 0 56.2357 0ZM53.8384 40.7812C53.6578 44.3855 52.8387 47.5791 50.2188 50.2031C47.5989 52.8272 44.4217 53.6667 40.837 53.8383C37.1389 54.0478 26.0516 54.0478 22.3535 53.8383C18.7646 53.6569 15.5958 52.8328 12.9717 50.2031C10.3476 47.5734 9.52286 44.3784 9.35203 40.7812C9.14338 37.0659 9.14338 25.9298 9.35203 22.2188C9.53266 18.6145 10.342 15.4209 12.9717 12.7969C15.6014 10.1728 18.7786 9.34313 22.3535 9.17156C26.0516 8.96203 37.1389 8.96203 40.837 9.17156C44.4259 9.35297 47.6045 10.177 50.2188 12.8067C52.833 15.4364 53.6676 18.6314 53.8384 22.2356C54.0471 25.9369 54.0471 37.0631 53.8384 40.7812Z" fill="url(#paint0_linear)"/>
<defs>
<linearGradient id="paint0_linear" x1="31.591" y1="0" x2="31.591" y2="63" gradientUnits="userSpaceOnUse">
<stop stop-color="#D11670"/>
<stop offset="1" stop-color="#6117FF"/>
</linearGradient>
</defs>
</svg>
