<svg width="70" height="70" viewBox="0 0 70 70" fill="none" xmlns="http://www.w3.org/2000/svg">
<path fill-rule="evenodd" clip-rule="evenodd" d="M2.91663 8.27747C2.91663 6.85569 3.48143 5.49214 4.48678 4.48678C5.49213 3.48143 6.85568 2.91663 8.27746 2.91663H61.7166C62.4212 2.91548 63.1191 3.05332 63.7704 3.32224C64.4216 3.59117 65.0134 3.98591 65.5119 4.48386C66.0104 4.98182 66.4058 5.5732 66.6755 6.22416C66.9451 6.87512 67.0837 7.57287 67.0833 8.27747V61.7166C67.0841 62.4214 66.9459 63.1193 66.6766 63.7706C66.4074 64.4219 66.0124 65.0137 65.5142 65.5121C65.016 66.0106 64.4244 66.4059 63.7733 66.6755C63.1222 66.9451 62.4243 67.0837 61.7195 67.0833H8.27746C7.57322 67.0833 6.87588 66.9445 6.22528 66.675C5.57469 66.4054 4.98358 66.0102 4.48575 65.5121C3.98791 65.014 3.59309 64.4227 3.32386 63.772C3.05462 63.1212 2.91624 62.4238 2.91663 61.7196V8.27747ZM28.315 27.3816H37.0037V31.745C38.2579 29.2366 41.4662 26.9791 46.2875 26.9791C55.5304 26.9791 57.7208 31.9754 57.7208 41.1425V58.1233H48.367V43.2308C48.367 38.01 47.1129 35.0641 43.9279 35.0641C39.5091 35.0641 37.6716 38.2404 37.6716 43.2308V58.1233H28.315V27.3816ZM12.2733 57.7237H21.63V26.9791H12.2733V57.7208V57.7237ZM22.9687 16.9516C22.9864 17.7528 22.8438 18.5493 22.5494 19.2946C22.255 20.0399 21.8147 20.7189 21.2544 21.2917C20.694 21.8646 20.0249 22.3197 19.2863 22.6304C18.5477 22.9411 17.7544 23.1012 16.9531 23.1012C16.1518 23.1012 15.3585 22.9411 14.6199 22.6304C13.8813 22.3197 13.2121 21.8646 12.6518 21.2917C12.0914 20.7189 11.6511 20.0399 11.3568 19.2946C11.0624 18.5493 10.9198 17.7528 10.9375 16.9516C10.9721 15.3791 11.6211 13.8827 12.7455 12.7828C13.8698 11.6829 15.3802 11.067 16.9531 11.067C18.526 11.067 20.0363 11.6829 21.1607 12.7828C22.2851 13.8827 22.9341 15.3791 22.9687 16.9516Z" fill="#589BFF"/>
</svg>
