<svg width="65" height="67" viewBox="0 0 65 67" fill="none" xmlns="http://www.w3.org/2000/svg">
<path d="M58.0357 0.6875H6.96429C3.11942 0.6875 0 3.83691 0 7.71875V59.2812C0 63.1631 3.11942 66.3125 6.96429 66.3125H58.0357C61.8806 66.3125 65 63.1631 65 59.2812V7.71875C65 3.83691 61.8806 0.6875 58.0357 0.6875ZM50.9408 23.9492C50.9699 24.3594 50.9699 24.7842 50.9699 25.1943C50.9699 37.8945 41.394 52.5283 23.8962 52.5283C18.4989 52.5283 13.4933 50.9463 9.28571 48.2217C10.0547 48.3096 10.7946 48.3389 11.5781 48.3389C16.0324 48.3389 20.1239 46.8154 23.3884 44.2373C19.2098 44.1494 15.6987 41.3809 14.4944 37.5723C15.9598 37.792 17.2801 37.792 18.7891 37.3965C14.4364 36.5029 11.1719 32.6357 11.1719 27.9629V27.8457C12.4342 28.5635 13.9141 29.0029 15.4665 29.0615C14.1613 28.185 13.0914 26.9959 12.3521 25.6003C11.6129 24.2047 11.2273 22.6461 11.2299 21.0635C11.2299 19.2764 11.6942 17.6357 12.5212 16.2148C17.2076 22.0449 24.2444 25.8535 32.1373 26.2637C30.7879 19.7451 35.6194 14.457 41.423 14.457C44.1652 14.457 46.6317 15.6143 48.3728 17.4893C50.5201 17.0791 52.5804 16.2734 54.4085 15.1748C53.6975 17.4014 52.2031 19.2764 50.2299 20.4629C52.1451 20.2578 54.0022 19.7158 55.7143 18.9688C54.423 20.8877 52.798 22.5869 50.9408 23.9492Z" fill="#4278FF"/>
</svg>
